<?xml version="1.0" encoding="UTF-8"?>
<svg version="1.1" xmlns="http://www.w3.org/2000/svg" width="810" height="420">
<path d="M0 0 C267.3 0 534.6 0 810 0 C810 138.6 810 277.2 810 420 C542.7 420 275.4 420 0 420 C0 281.4 0 142.8 0 0 Z " fill="#FEFEFE" transform="translate(0,0)"/>
<path d="M0 0 C11.17853225 20.20591578 18.02583105 39.44420227 23 62 C23.18925049 62.82411377 23.37850098 63.64822754 23.57348633 64.49731445 C27.87538993 83.2940278 28.18687804 102.51479869 28.18530273 121.70678711 C28.18748415 124.66600049 28.205705 127.62483666 28.22460938 130.58398438 C28.27924206 148.62279718 26.74910713 166.28523017 23.6875 184.0625 C23.35721802 185.98823853 23.35721802 185.98823853 23.02026367 187.95288086 C14.93984021 233.89569522 -3.79149954 282.49413811 -32 320 C-32.66 320.33 -33.32 320.66 -34 321 C-32.6689603 316.69653487 -31.00582948 312.64031181 -29.18286133 308.53125 C-14.07773638 274.40400322 -2.78075645 238.54662657 2.45703125 201.53515625 C3 198 3 198 4 195 C13.3626168 138.37762071 6.81145875 77.07003251 -20 26 C-20.73089844 24.18205933 -20.73089844 24.18205933 -21.4765625 22.32739258 C-22.8325497 19.99277478 -23.49056191 19.15795116 -26.09710693 18.34979248 C-28.83063698 18.09019397 -31.48874476 18.05704135 -34.234375 18.09765625 C-35.72411835 18.07921913 -35.72411835 18.07921913 -37.24395752 18.06040955 C-40.41338658 18.02863797 -43.58049742 18.04496903 -46.75 18.0625 C-48.89976124 18.04939367 -51.04950584 18.03315518 -53.19921875 18.01367188 C-58.46664163 17.97278024 -63.73249419 17.97502203 -69 18 C-69 14.04 -69 10.08 -69 6 C-58.48626755 4.23178136 -47.97407732 3.11813296 -37.36181641 2.14013672 C-34.50479512 1.87544425 -31.648923 1.60015873 -28.79296875 1.32421875 C-19.16318474 0.41531066 -9.68141578 -0.30565742 0 0 Z " fill="#DA5828" transform="translate(776,82)"/>
<path d="M0 0 C2.8767461 2.18801372 5.38819957 4.48493292 8 7 C8.33 3.7 8.66 0.4 9 -3 C12.63 -3 16.26 -3 20 -3 C20 19.77 20 42.54 20 66 C16.37 66 12.74 66 9 66 C8.67 62.7 8.34 59.4 8 56 C7.05125 57.0725 6.1025 58.145 5.125 59.25 C-1.24120813 65.50207292 -7.67478874 67.22421215 -16.5 67.5 C-25.45517254 67.22917825 -32.76546048 65.00602608 -39.40234375 58.83984375 C-47.22304455 49.83360884 -50.4212995 39.70988099 -50.27734375 27.9375 C-49.30859851 17.67698703 -44.01105791 9.45242633 -36.5 2.6875 C-26.08151718 -5.75743762 -11.61779019 -6.74142675 0 0 Z " fill="#5C242C" transform="translate(577,206)"/>
<path d="M0 0 C3.46618123 2.72103599 4.53822666 6.49348673 5.9765625 10.49609375 C6.25945633 11.26119766 6.54235016 12.02630157 6.83381653 12.81459045 C7.44869338 14.47959639 8.05992075 16.14595353 8.66793823 17.81347656 C10.30713361 22.30773935 11.97337751 26.79197375 13.63671875 31.27734375 C14.15943108 32.68993973 14.15943108 32.68993973 14.69270325 34.131073 C18.83320732 45.29549895 23.1328607 56.39806257 27.4375 67.5 C28.19679156 69.46019957 28.95606924 71.42040452 29.71533203 73.38061523 C31.47480831 77.92121936 33.23664015 82.46090275 35 87 C36.64298549 84.53552176 37.62246972 82.64761201 38.65722656 79.93212891 C38.97273468 79.10955093 39.2882428 78.28697296 39.61331177 77.43946838 C39.95232513 76.54420944 40.2913385 75.6489505 40.640625 74.7265625 C40.99986053 73.78662949 41.35909607 72.84669647 41.72921753 71.87828064 C42.90643451 68.79522178 44.07828306 65.71015288 45.25 62.625 C46.0581535 60.50502115 46.86658646 58.38514881 47.67529297 56.26538086 C50.12271628 49.84580652 52.56254893 43.42336643 55 37 C55.37233765 36.01892273 55.74467529 35.03784546 56.1282959 34.02703857 C60.43038684 22.68904059 64.7212888 11.3468411 69 0 C69.66 0 70.32 0 71 0 C71.1451001 0.71091797 71.2902002 1.42183594 71.43969727 2.15429688 C76.03309206 24.61487011 80.82717878 47.02808156 85.89453125 69.38671875 C86.05066391 70.07590393 86.20679657 70.76508911 86.36766052 71.47515869 C87.10939178 74.74645805 87.85413641 78.01700551 88.60327148 81.28662109 C90.02878935 87.54223392 91.40904888 93.80576965 92.703125 100.08984375 C93.07679199 101.89569946 93.07679199 101.89569946 93.45800781 103.73803711 C94 107 94 107 94 112 C90.37 112 86.74 112 83 112 C82.54560547 109.90978516 82.54560547 109.90978516 82.08203125 107.77734375 C81.88230713 106.85864502 81.68258301 105.93994629 81.47680664 104.9934082 C81.02672025 102.92294465 80.5766894 100.85246901 80.12670898 98.78198242 C79.00760651 93.63302566 77.88789291 88.48420532 76.765625 83.3359375 C73.47464358 68.23158727 70.23162001 53.11715358 67 38 C56.65882365 64.66363194 46.3182431 91.32748327 36 118 C34.42210135 115.63315202 33.43583075 113.8251817 32.41870117 111.23583984 C32.12002136 110.4805751 31.82134155 109.72531036 31.51361084 108.94715881 C31.19329895 108.12670578 30.87298706 107.30625275 30.54296875 106.4609375 C30.20324036 105.59903305 29.86351196 104.7371286 29.51348877 103.84910583 C28.4015109 101.02569545 27.29449057 98.20036907 26.1875 95.375 C25.42423867 93.43435944 24.66064597 91.49384917 23.89672852 89.5534668 C22.34662825 85.61465325 20.79845103 81.67509259 19.25195312 77.73486328 C17.16734933 72.4242939 15.07717054 67.11593955 12.984375 61.80859375 C12.37605684 60.26578819 11.76773975 58.72298222 11.15942383 57.18017578 C10.7286705 56.08772552 10.7286705 56.08772552 10.28921509 54.97320557 C8.19074316 49.64961785 6.09545661 44.32477515 4 39 C1.86713794 47.29602062 -0.04345667 55.61940483 -1.8125 64 C-2.33325817 66.44923473 -2.85409393 68.89845297 -3.375 71.34765625 C-3.64054687 72.59949707 -3.90609375 73.85133789 -4.1796875 75.14111328 C-5.01107437 79.05209569 -5.84793665 82.96186072 -6.6875 86.87109375 C-6.95973389 88.13888672 -7.23196777 89.40667969 -7.51245117 90.71289062 C-8.036029 93.15039544 -8.5596284 95.58789563 -9.08325195 98.02539062 C-9.32003662 99.12947266 -9.55682129 100.23355469 -9.80078125 101.37109375 C-10.00872314 102.33974365 -10.21666504 103.30839355 -10.4309082 104.30639648 C-10.97194128 106.86719352 -11.48670003 109.43350017 -12 112 C-15.96 112 -19.92 112 -24 112 C-22.72675197 103.92208204 -21.15515464 96.01228139 -19.25 88.0625 C-17.01449878 78.56987904 -14.94272 69.05672249 -13 59.5 C-10.86518829 49.01422486 -8.56292508 38.58126809 -6.12255859 28.16259766 C-3.93514875 18.80445269 -1.92829118 9.41459809 0 0 Z " fill="#5D252D" transform="translate(424,160)"/>
<path d="M0 0 C9.05173999 5.20440073 15.36982309 12.99456001 19.90234375 22.265625 C20.87726643 27.23773067 20.52734375 32.38634012 20.52734375 37.453125 C0.72734375 37.453125 -19.07265625 37.453125 -39.47265625 37.453125 C-35.26536864 46.91952212 -33.32166353 51.02862136 -24.47265625 55.453125 C-17.5377216 57.59353693 -10.57191866 57.36013914 -4.03515625 54.203125 C-1.35326042 52.77160235 0.40625504 51.59094143 2.421875 49.296875 C5.27724564 46.79643911 7.04579002 47.04088353 10.77734375 47.203125 C11.855 47.23921875 12.93265625 47.2753125 14.04296875 47.3125 C14.8628125 47.35890625 15.68265625 47.4053125 16.52734375 47.453125 C13.75679615 55.23768801 7.73686292 61.47129851 0.52734375 65.453125 C-8.76697253 69.8352361 -19.79729205 69.73051741 -29.47265625 66.453125 C-39.50905223 61.29484595 -46.25381441 53.86076374 -50.47265625 43.453125 C-53.07583706 35.29538641 -52.15895469 25.89564517 -48.92578125 18.0859375 C-39.09523579 0.2746804 -18.99666431 -8.11286115 0 0 Z " fill="#5C232B" transform="translate(188.47265625,204.546875)"/>
<path d="M0 0 C3.63 0 7.26 0 11 0 C11.33 19.14 11.66 38.28 12 58 C14.31 55.69 16.62 53.38 19 51 C25.73152406 47.13927296 31.27885298 46.05982989 39 47 C45.42756649 48.85201068 51.58679762 52.91593767 55.04627991 58.77070618 C58.25128574 65.25936915 58.52879388 70.88006409 58.390625 78.03515625 C58.38496521 79.15442001 58.37930542 80.27368378 58.37347412 81.42686462 C58.35123251 84.97252687 58.30105731 88.51714748 58.25 92.0625 C58.22991929 94.47850095 58.21167129 96.89451786 58.1953125 99.31054688 C58.1514075 105.2074275 58.08246357 111.10353765 58 117 C54.37 117 50.74 117 47 117 C46.9906543 115.51677246 46.98130859 114.03354492 46.97167969 112.50537109 C46.9317505 106.99237242 46.8659824 101.47993004 46.79248047 95.96728516 C46.76428805 93.58324337 46.74306497 91.19910842 46.72900391 88.81494141 C46.70755131 85.38395548 46.66088636 81.95408776 46.609375 78.5234375 C46.60814636 77.46071625 46.60691772 76.397995 46.60565186 75.30307007 C46.48627828 69.24568404 46.05829615 65.6079364 42 61 C37.57406926 57.89645101 32.16707703 58.29962165 27 59 C20.93223163 61.43515745 16.67464853 65.56256355 13.8125 71.4375 C12.01088702 77.11951016 11.81037784 82.77488739 11.68359375 88.6796875 C11.66281265 89.49245148 11.64203156 90.30521545 11.62062073 91.14260864 C11.55562421 93.71999257 11.49647407 96.29747194 11.4375 98.875 C11.39426723 100.63021791 11.35065148 102.38542643 11.30664062 104.140625 C11.19999451 108.42698738 11.09858886 112.71344504 11 117 C7.37 117 3.74 117 0 117 C0 78.39 0 39.78 0 0 Z " fill="#5D242C" transform="translate(289,155)"/>
<path d="M0 0 C20.79 0 41.58 0 63 0 C63 3.63 63 7.26 63 11 C45.84 11 28.68 11 11 11 C11 23.21 11 35.42 11 48 C27.5 48 44 48 61 48 C61 51.3 61 54.6 61 58 C44.5 58 28 58 11 58 C11 73.84 11 89.68 11 106 C7.37 106 3.74 106 0 106 C0 71.02 0 36.04 0 0 Z " fill="#5E262E" transform="translate(16,166)"/>
<path d="M0 0 C5.5063511 3.2579244 11.03430236 8.06805626 13.24609375 14.23046875 C14.87565258 22.37826289 14.90058413 30.45452924 10.24609375 37.53515625 C5.54373111 43.27463146 0.75520242 46.95894677 -6.765625 47.84375 C-13.91947005 48.02038815 -19.60410994 48.00102971 -25.44140625 43.35546875 C-31.27320479 37.37757087 -34.3714454 31.65147909 -34.6875 23.3125 C-34.59152722 16.11454141 -32.24284028 10.62778982 -27.375 5.328125 C-19.75369525 -1.65807102 -9.88324533 -4.49764875 0 0 Z " fill="#FCFCFC" transform="translate(572.3125,214.5625)"/>
<path d="M0 0 C9.64317692 7.78998136 15.30047326 18.2638942 17.609375 30.29296875 C18.0324585 35.64895445 18.05041568 40.98728891 18.05078125 46.35546875 C18.06257791 47.87957003 18.07594766 49.40365986 18.09080505 50.92773438 C18.12669903 54.9048783 18.14711378 58.8819205 18.16235352 62.85919189 C18.18736222 69.25164016 18.22681427 75.64386431 18.28425407 82.03610229 C18.30055801 84.26248488 18.30435616 86.48865304 18.30726624 88.71508789 C18.31703807 90.07438533 18.32730061 91.43367936 18.33813477 92.79296875 C18.34454735 94.571875 18.34454735 94.571875 18.35108948 96.38671875 C18.39282913 99.48692195 18.39282913 99.48692195 20.609375 102.29296875 C20.2852381 105.61537199 20.00161197 106.90073178 17.609375 109.29296875 C14.109375 109.60546875 14.109375 109.60546875 10.609375 109.29296875 C8.46021715 106.06923198 8.22650697 105.02593201 8.609375 101.29296875 C9.269375 100.63296875 9.929375 99.97296875 10.609375 99.29296875 C10.93829034 96.30210916 10.93829034 96.30210916 10.91577148 92.73876953 C10.92825676 91.72848946 10.92825676 91.72848946 10.94099426 90.69779968 C10.96516784 88.46123515 10.97388062 86.22496279 10.98046875 83.98828125 C10.98943852 82.42804885 10.99856043 80.86781733 11.00782776 79.30758667 C11.02434646 76.02730219 11.0320215 72.74711999 11.03491211 69.46679688 C11.04026015 65.29300191 11.07777663 61.12019143 11.12365627 56.94667244 C11.1536439 53.71726129 11.16064052 50.48807928 11.16163826 47.25854111 C11.16580761 45.72215197 11.17810773 44.18576004 11.19915581 42.64950943 C11.35966115 29.90614368 9.02057067 19.3475962 0.61328125 9.32421875 C-9.64532259 -1.07436604 -22.27172594 -4.7279614 -36.55883789 -4.94873047 C-51.1022975 -4.99548958 -64.1074707 -2.79671789 -75.203125 7.54296875 C-85.92919374 19.24647301 -87.8591022 31.74360032 -87.75390625 47.07421875 C-87.75338661 48.57971191 -87.75390831 50.08520575 -87.75541687 51.59069824 C-87.75532775 54.72398184 -87.74501285 57.85700488 -87.72680664 60.99023438 C-87.70396368 65.00977551 -87.70360991 69.02894216 -87.71032429 73.04853058 C-87.71365839 76.14712877 -87.7070474 79.2456411 -87.69719505 82.34422302 C-87.69334484 83.82742362 -87.6921941 85.31063375 -87.6937809 86.7938385 C-87.69415048 88.85688696 -87.68156765 90.91944668 -87.6652832 92.98242188 C-87.66067581 94.1558313 -87.65606842 95.32924072 -87.65132141 96.53820801 C-87.67231431 99.43617427 -87.67231431 99.43617427 -85.390625 101.29296875 C-85.578125 104.79296875 -85.578125 104.79296875 -86.390625 108.29296875 C-89.390625 110.29296875 -89.390625 110.29296875 -91.890625 110.10546875 C-94.62208237 109.2177451 -95.78182504 108.66383184 -97.390625 106.29296875 C-97.703125 103.73046875 -97.703125 103.73046875 -97.390625 101.29296875 C-96.400625 100.30296875 -96.400625 100.30296875 -95.390625 99.29296875 C-95.08568632 96.42335153 -95.08568632 96.42335153 -95.13525391 93.01416016 C-95.13163345 92.36990082 -95.128013 91.72564148 -95.12428284 91.06185913 C-95.11738073 89.65957685 -95.11488492 88.25726765 -95.11623001 86.85496902 C-95.11719596 84.62500229 -95.10424005 82.39551682 -95.08724976 80.1656189 C-95.04103547 73.82415656 -95.01642939 67.4827381 -95.00976562 61.14111328 C-95.00470577 57.26118712 -94.98021899 53.38175346 -94.94443893 49.50199509 C-94.93473007 48.03266759 -94.93225955 46.56327149 -94.93761063 45.09392166 C-94.99156015 29.53039259 -91.01114929 15.30171866 -80.265625 3.54296875 C-58.03846789 -16.65904738 -24.05325413 -17.17528113 0 0 Z " fill="#DB5F31" transform="translate(684.390625,18.70703125)"/>
<path d="M0 0 C3.39212074 3.71517986 6.625 8.65361268 6.625 13.875 C2.665 13.875 -1.295 13.875 -5.375 13.875 C-5.74625 12.946875 -6.1175 12.01875 -6.5 11.0625 C-8.79911095 7.15401138 -10.08288708 6.2796915 -14.375 4.875 C-19.42109497 4.21039237 -23.27153452 4.4183936 -28 6.375 C-30.86987081 9.39591664 -31.02366334 10.85572853 -30.9765625 14.875 C-30.10458978 17.77402617 -28.7220031 18.98873409 -26.375 20.875 C-23.60487937 22.03617111 -23.60487937 22.03617111 -20.5 22.8125 C-15.58208112 24.22792812 -10.71478515 25.70909501 -5.875 27.375 C-4.18890625 27.94734375 -4.18890625 27.94734375 -2.46875 28.53125 C2.73794772 30.79274497 6.26322893 33.65784011 8.625 38.875 C9.41978726 44.99700996 9.56350038 50.85896215 6.9375 56.5 C6.174375 57.28375 5.41125 58.0675 4.625 58.875 C3.944375 59.57625 3.26375 60.2775 2.5625 61 C-6.50491036 66.78770874 -15.74574717 68.0508023 -26.375 66.875 C-29.70568719 65.95812544 -32.45560077 64.70677991 -35.375 62.875 C-36.7671875 62.00875 -36.7671875 62.00875 -38.1875 61.125 C-42.67748761 56.50672703 -44.375 52.29778447 -44.375 45.875 C-40.745 45.875 -37.115 45.875 -33.375 45.875 C-32.83875 47.133125 -32.3025 48.39125 -31.75 49.6875 C-30.31671894 52.47033093 -29.39965758 53.85476814 -26.9375 55.875 C-20.68919666 57.62890971 -12.59278077 58.59520924 -6.625 55.4375 C-3.86086231 52.2894543 -3.31575148 50.1217024 -3.16015625 45.98828125 C-3.2450723 43.74199897 -3.2450723 43.74199897 -4.6875 41.5625 C-11.85343265 37.06296089 -19.94337445 35.06129426 -28.078125 33 C-34.50603035 30.80659154 -38.42370939 27.18101882 -42.375 21.875 C-44.13699529 16.58901412 -44.09004789 11.83387643 -41.875 6.75 C-38.846624 1.29462763 -34.09711381 -1.7639431 -28.625 -4.5 C-18.54351247 -6.4387476 -8.75715886 -5.51376669 0 0 Z " fill="#5D252D" transform="translate(264.375,207.125)"/>
<path d="M0 0 C3.63 0 7.26 0 11 0 C11 8.91 11 17.82 11 27 C16.61 27 22.22 27 28 27 C28 30.3 28 33.6 28 37 C22.39 37 16.78 37 11 37 C11 56.14 11 75.28 11 95 C7.37 95 3.74 95 0 95 C0 75.86 0 56.72 0 37 C-5.61 37 -11.22 37 -17 37 C-17 33.37 -17 29.74 -17 26 C-11.39 26 -5.78 26 0 26 C0 17.42 0 8.84 0 0 Z " fill="#602930" transform="translate(677,177)"/>
<path d="M0 0 C0.99 0.66 1.98 1.32 3 2 C3.29296875 5.2578125 3.29296875 5.2578125 3.1875 9.125 C3.14689453 11.04699219 3.14689453 11.04699219 3.10546875 13.0078125 C3.07066406 13.99523437 3.03585937 14.98265625 3 16 C2.071875 15.51402344 1.14375 15.02804688 0.1875 14.52734375 C-3.34626693 12.83408043 -5.14088744 12.43721275 -9 13 C-15.23189443 16.11594722 -17.52412366 20.35272746 -20.02783203 26.54003906 C-21.24465143 30.87071826 -21.35279326 34.85933006 -21.4140625 39.3359375 C-21.43342865 40.21528961 -21.4527948 41.09464172 -21.4727478 42.00064087 C-21.53222815 44.79199718 -21.5788021 47.58339543 -21.625 50.375 C-21.66320885 52.27475694 -21.70226226 54.1744971 -21.7421875 56.07421875 C-21.83790357 60.7160085 -21.9220504 65.35787929 -22 70 C-25.63 70 -29.26 70 -33 70 C-33 47.23 -33 24.46 -33 1 C-29.37 1 -25.74 1 -22 1 C-21.67 4.63 -21.34 8.26 -21 12 C-20.505 10.948125 -20.01 9.89625 -19.5 8.8125 C-15.27254503 1.51457774 -8.2767216 -1.55086499 0 0 Z " fill="#612931" transform="translate(653,202)"/>
<path d="M0 0 C0.99 0.66 1.98 1.32 3 2 C3.29296875 5.2578125 3.29296875 5.2578125 3.1875 9.125 C3.14689453 11.04699219 3.14689453 11.04699219 3.10546875 13.0078125 C3.07066406 13.99523437 3.03585938 14.98265625 3 16 C2.071875 15.51402344 1.14375 15.02804688 0.1875 14.52734375 C-3.34626693 12.83408043 -5.14088744 12.43721275 -9 13 C-15.23189443 16.11594722 -17.52412366 20.35272746 -20.02783203 26.54003906 C-21.24465143 30.87071826 -21.35279326 34.85933006 -21.4140625 39.3359375 C-21.43342865 40.21528961 -21.4527948 41.09464172 -21.4727478 42.00064087 C-21.53222815 44.79199718 -21.5788021 47.58339543 -21.625 50.375 C-21.66320885 52.27475694 -21.70226226 54.1744971 -21.7421875 56.07421875 C-21.83790357 60.7160085 -21.9220504 65.35787929 -22 70 C-25.63 70 -29.26 70 -33 70 C-33 47.23 -33 24.46 -33 1 C-29.37 1 -25.74 1 -22 1 C-21.67 4.63 -21.34 8.26 -21 12 C-20.505 10.948125 -20.01 9.89625 -19.5 8.8125 C-15.27254503 1.51457774 -8.2767216 -1.55086499 0 0 Z " fill="#612931" transform="translate(126,202)"/>
<path d="M0 0 C4.65071148 2.01087906 7.46118409 4.74081073 9.890625 9.1796875 C11.94767142 14.53559177 11.42709426 19.42933386 9.17578125 24.63671875 C6.80557999 28.73741297 4.21446943 31.65219583 -0.26171875 33.38671875 C-5.7304025 34.22634003 -11.21370869 34.32646512 -16.26171875 31.82421875 C-19.87228227 28.89063589 -21.25631781 26.55178225 -23.26171875 22.38671875 C-23.59171875 21.72671875 -23.92171875 21.06671875 -24.26171875 20.38671875 C-24.63534769 14.7822847 -24.49371951 11.18259085 -21.26171875 6.38671875 C-14.78307627 -0.01693944 -9.19148817 -2.4923379 0 0 Z " fill="#FEFCFB" transform="translate(632.26171875,327.61328125)"/>
<path d="M0 0 C3.7229703 2.6592645 6.55543557 5.73587115 8.625 9.875 C9.15279267 16.0867137 9.36903643 21.633349 5.625 26.875 C1.22441746 31.28760598 -2.46907636 33.02408361 -8.6875 33.1875 C-14.66255587 33.10877726 -17.60780472 31.64955485 -21.84375 27.40234375 C-25.37481209 23.25334579 -26.04511717 19.68193334 -25.71875 14.296875 C-24.92976401 8.73811006 -23.05695744 5.11385193 -18.875 1.4375 C-12.96740247 -2.63896029 -6.59976414 -2.19992138 0 0 Z " fill="#FEFAF9" transform="translate(180.375,328.125)"/>
<path d="M0 0 C6.01927417 3.31655593 10.13256482 7.75162221 13.06640625 13.9765625 C13.56140625 16.4515625 13.56140625 16.4515625 14.06640625 18.9765625 C-1.77359375 18.9765625 -17.61359375 18.9765625 -33.93359375 18.9765625 C-32.28201913 10.71868939 -28.60080217 5.9607366 -21.80078125 1.10546875 C-15.64180987 -2.61826081 -6.61314944 -2.30711738 0 0 Z " fill="#F9F7F8" transform="translate(182.93359375,214.0234375)"/>
<path d="M0 0 C0.85658203 0.00451172 1.71316406 0.00902344 2.59570312 0.01367188 C4.66800033 0.02524895 6.74026058 0.04317341 8.8125 0.0625 C8.8125 3.6925 8.8125 7.3225 8.8125 11.0625 C-21.2175 11.0625 -51.2475 11.0625 -82.1875 11.0625 C-82.1875 9.7425 -82.1875 8.4225 -82.1875 7.0625 C-74.4241138 6.29697813 -66.66068293 5.53191095 -58.89719677 4.7674036 C-55.29122488 4.41229245 -51.68526782 4.05703227 -48.0793457 3.70141602 C-44.591017 3.35740262 -41.10264796 3.01380094 -37.61425209 2.67046928 C-35.65419951 2.47745497 -33.69418754 2.28402845 -31.73417664 2.09059143 C-28.2189085 1.74480952 -24.70335049 1.40230611 -21.1875 1.0625 C-20.14560013 0.96138412 -19.10370026 0.86026825 -18.03022766 0.75608826 C-17.06763535 0.66513382 -16.10504303 0.57417938 -15.11328125 0.48046875 C-14.283125 0.40151367 -13.45296875 0.32255859 -12.59765625 0.24121094 C-8.39923317 -0.07009839 -4.20734549 -0.04330601 0 0 Z " fill="#DC6032" transform="translate(682.1875,89.9375)"/>
<path d="M0 0 C14.88888889 0 14.88888889 0 19 3 C21.46165708 6.69248562 21.80846905 9.71511403 21 14 C19.03332671 17.52488367 16.89635569 19.70121477 13 21 C11.27204648 21.06802967 9.54164635 21.08495645 7.8125 21.0625 C6.224375 21.041875 4.63625 21.02125 3 21 C3 25.29 3 29.58 3 34 C2.01 34 1.02 34 0 34 C0 22.78 0 11.56 0 0 Z " fill="#DB5F30" transform="translate(674,327)"/>
<path d="M0 0 C2.69880118 2.69880118 4.63826726 4.70586668 6.69140625 7.75 C7.39620117 8.78640625 7.39620117 8.78640625 8.11523438 9.84375 C8.83163086 10.91109375 8.83163086 10.91109375 9.5625 12 C10.52139771 13.4171661 11.48101192 14.83384771 12.44140625 16.25 C12.86107666 16.87390625 13.28074707 17.4978125 13.71313477 18.140625 C15.09036226 20.13056327 16.54797398 22.06396531 18 24 C18.33 16.74 18.66 9.48 19 2 C20.32 2 21.64 2 23 2 C23 13.55 23 25.1 23 37 C19.6385953 33.6385953 17.22105406 31.14641361 14.66796875 27.35546875 C14.15258545 26.59645264 13.63720215 25.83743652 13.10620117 25.05541992 C12.47302979 24.10900635 11.8398584 23.16259277 11.1875 22.1875 C9.145625 19.155625 7.10375 16.12375 5 13 C4.67 20.59 4.34 28.18 4 36 C2.68 36 1.36 36 0 36 C0 24.12 0 12.24 0 0 Z " fill="#DE693D" transform="translate(220,325)"/>
<path d="M0 0 C3.3614047 3.3614047 5.77894594 5.85358639 8.33203125 9.64453125 C8.84741455 10.40354736 9.36279785 11.16256348 9.89379883 11.94458008 C10.52697021 12.89099365 11.1601416 13.83740723 11.8125 14.8125 C13.854375 17.844375 15.89625 20.87625 18 24 C18.33 16.41 18.66 8.82 19 1 C20.32 1 21.64 1 23 1 C23 12.88 23 24.76 23 37 C20.30119882 34.30119882 18.36173274 32.29413332 16.30859375 29.25 C15.83873047 28.5590625 15.36886719 27.868125 14.88476562 27.15625 C14.16836914 26.08890625 14.16836914 26.08890625 13.4375 25 C12.47860229 23.5828339 11.51898808 22.16615229 10.55859375 20.75 C9.92908813 19.81414062 9.92908813 19.81414062 9.28686523 18.859375 C7.90963774 16.86943673 6.45202602 14.93603469 5 13 C4.67 20.26 4.34 27.52 4 35 C2.68 35 1.36 35 0 35 C0 23.45 0 11.9 0 0 Z " fill="#DD683D" transform="translate(356,326)"/>
<path d="M0 0 C4.65071148 2.01087906 7.46118409 4.74081073 9.890625 9.1796875 C11.94767142 14.53559177 11.42709426 19.42933386 9.17578125 24.63671875 C6.80557999 28.73741297 4.21446943 31.65219583 -0.26171875 33.38671875 C-5.7304025 34.22634003 -11.21370869 34.32646512 -16.26171875 31.82421875 C-19.87228227 28.89063589 -21.25631781 26.55178225 -23.26171875 22.38671875 C-23.59171875 21.72671875 -23.92171875 21.06671875 -24.26171875 20.38671875 C-24.63534769 14.7822847 -24.49371951 11.18259085 -21.26171875 6.38671875 C-14.78307627 -0.01693944 -9.19148817 -2.4923379 0 0 Z M-18.63671875 8.57421875 C-20.93183932 12.54654281 -20.9315926 15.90183162 -20.26171875 20.38671875 C-18.27152235 25.1003418 -14.81826221 28.10844702 -10.26171875 30.38671875 C-4.16103936 30.98482457 -1.12259098 29.8454163 3.73828125 26.38671875 C7.17390307 22.6186174 7.25375575 18.72743037 7.0859375 13.82421875 C6.5601862 10.13805231 5.25013734 8.09687926 2.73828125 5.38671875 C-5.63367542 -0.1945857 -11.7363893 2.21865215 -18.63671875 8.57421875 Z " fill="#DC6437" transform="translate(632.26171875,327.61328125)"/>
<path d="M0 0 C3.7229703 2.6592645 6.55543557 5.73587115 8.625 9.875 C9.15279267 16.0867137 9.36903643 21.633349 5.625 26.875 C1.22441746 31.28760598 -2.46907636 33.02408361 -8.6875 33.1875 C-14.66255587 33.10877726 -17.60780472 31.64955485 -21.84375 27.40234375 C-25.37481209 23.25334579 -26.04511717 19.68193334 -25.71875 14.296875 C-24.92976401 8.73811006 -23.05695744 5.11385193 -18.875 1.4375 C-12.96740247 -2.63896029 -6.59976414 -2.19992138 0 0 Z M-20.75 8.6875 C-22.69115304 12.49514635 -22.90321909 14.64924726 -22.375 18.875 C-20.38655883 24.21239473 -17.46832352 27.32833824 -12.375 29.875 C-7.13191431 30.27831428 -3.81372447 29.73551133 0.625 26.875 C4.52444801 22.55399005 5.98520885 19.88036835 5.91015625 13.97265625 C5.32403493 9.66105149 2.72708184 6.84349616 -0.4375 4.0625 C-8.3686862 -0.79854961 -15.16680299 2.07581933 -20.75 8.6875 Z " fill="#DC6032" transform="translate(180.375,328.125)"/>
<path d="M0 0 C6.6 0 13.2 0 20 0 C20 1.32 20 2.64 20 4 C14.72 4 9.44 4 4 4 C4 7.63 4 11.26 4 15 C9.28 15 14.56 15 20 15 C20 16.32 20 17.64 20 19 C14.72 19 9.44 19 4 19 C4 22.63 4 26.26 4 30 C9.28 30 14.56 30 20 30 C20 31.32 20 32.64 20 34 C13.4 34 6.8 34 0 34 C0 22.78 0 11.56 0 0 Z " fill="#DF7046" transform="translate(411,327)"/>
<path d="M0 0 C1.32 0 2.64 0 4 0 C4 4.95 4 9.9 4 15 C8.95 15 13.9 15 19 15 C19 10.05 19 5.1 19 0 C19.99 0 20.98 0 22 0 C22 11.22 22 22.44 22 34 C21.01 34 20.02 34 19 34 C19 29.05 19 24.1 19 19 C14.05 19 9.1 19 4 19 C4 23.95 4 28.9 4 34 C2.68 34 1.36 34 0 34 C0 22.78 0 11.56 0 0 Z " fill="#DD6437" transform="translate(555,327)"/>
<path d="M0 0 C3.24006063 1.35002526 4.51973759 2.19956265 6.3125 5.1875 C6.539375 5.785625 6.76625 6.38375 7 7 C3.62537285 6.45276317 1.91765 5.9451 -1 4 C-3.21582589 3.68439676 -3.21582589 3.68439676 -5.5625 3.75 C-6.34753906 3.74484375 -7.13257813 3.7396875 -7.94140625 3.734375 C-10.22290968 3.81570738 -10.22290968 3.81570738 -12 6 C-12.06546898 8.51047485 -12.06546898 8.51047485 -11 11 C-7.95763523 13.55166077 -4.69513243 14.40110286 -0.9375 15.4375 C5.79665006 17.39451827 5.79665006 17.39451827 8 21 C8.60070929 25.12987637 8.47042865 27.21595224 6.3125 30.8125 C2.64011371 34.28637893 0.08099292 34.89704829 -4.9375 35.375 C-9.23103924 35.25325503 -11.75024279 33.86288136 -15 31 C-16.375 28.25 -16.375 28.25 -17 26 C-14.625 26.3125 -14.625 26.3125 -12 27 C-11.34 27.99 -10.68 28.98 -10 30 C-7.40315156 30.40294547 -7.40315156 30.40294547 -4.5 30.25 C-3.5203125 30.23453125 -2.540625 30.2190625 -1.53125 30.203125 C0.99293435 30.1594643 0.99293435 30.1594643 3 29 C3 26.69 3 24.38 3 22 C1.87980469 21.61328125 0.75960937 21.2265625 -0.39453125 20.828125 C-1.86742909 20.30276016 -3.34007226 19.77668095 -4.8125 19.25 C-5.55048828 18.99734375 -6.28847656 18.7446875 -7.04882812 18.484375 C-13.9770425 15.9764241 -13.9770425 15.9764241 -16 12 C-16.5625 8.5625 -16.5625 8.5625 -16 5 C-11.5051413 -0.55943049 -6.90446807 -1.06045253 0 0 Z " fill="#DD6538" transform="translate(517,327)"/>
<path d="M0 0 C9.6092603 -0.43026539 9.6092603 -0.43026539 14 3 C15 4 15 4 15.3125 6.8125 C15 10 15 10 13.6875 12.375 C9.29090442 15.03340663 5.0628521 14.2410882 0 14 C0 9.38 0 4.76 0 0 Z " fill="#FCF4F0" transform="translate(677,330)"/>
<path d="M0 0 C1.32 0 2.64 0 4 0 C4 9.9 4 19.8 4 30 C7.96 30 11.92 30 16 30 C16 31.32 16 32.64 16 34 C10.72 34 5.44 34 0 34 C0 22.78 0 11.56 0 0 Z " fill="#DE6C41" transform="translate(275,327)"/>
<path d="M0 0 C1.32 0 2.64 0 4 0 C4 11.22 4 22.44 4 34 C2.68 34 1.36 34 0 34 C0 22.78 0 11.56 0 0 Z " fill="#DE6C42" transform="translate(320,327)"/>
<path d="M0 0 C0.33 0.99 0.66 1.98 1 3 C-0.43359375 5.48046875 -0.43359375 5.48046875 -2.4375 8.1875 C-3.09621094 9.08855469 -3.75492188 9.98960937 -4.43359375 10.91796875 C-5.20896484 11.94857422 -5.20896484 11.94857422 -6 13 C-6.33 12.34 -6.66 11.68 -7 11 C-6.07421875 8.65234375 -6.07421875 8.65234375 -4.6875 5.9375 C-4.23761719 5.03902344 -3.78773438 4.14054687 -3.32421875 3.21484375 C-2 1 -2 1 0 0 Z " fill="#E17A53" transform="translate(749,390)"/>
</svg>
